<?xml version="1.0" encoding="UTF-8" standalone="no"?>
<svg
   xmlns:dc="http://purl.org/dc/elements/1.1/"
   xmlns:cc="http://creativecommons.org/ns#"
   xmlns:rdf="http://www.w3.org/1999/02/22-rdf-syntax-ns#"
   xmlns:svg="http://www.w3.org/2000/svg"
   xmlns="http://www.w3.org/2000/svg"
   xmlns:sodipodi="http://sodipodi.sourceforge.net/DTD/sodipodi-0.dtd"
   xmlns:inkscape="http://www.inkscape.org/namespaces/inkscape"
   version="1.0"
   width="681.000000pt"
   height="239.000000pt"
   viewBox="0 0 681.000000 239.000000"
   preserveAspectRatio="xMidYMid meet"
   id="svg24"
   sodipodi:docname="longinus.svg"
   inkscape:version="0.92.4 (5da689c313, 2019-01-14)">
  <defs
     id="defs28" />
  <sodipodi:namedview
     pagecolor="#ffffff"
     bordercolor="#666666"
     borderopacity="1"
     objecttolerance="10"
     gridtolerance="10"
     guidetolerance="10"
     inkscape:pageopacity="0"
     inkscape:pageshadow="2"
     inkscape:window-width="1920"
     inkscape:window-height="1001"
     id="namedview26"
     showgrid="false"
     inkscape:zoom="0.5253304"
     inkscape:cx="454"
     inkscape:cy="159.33333"
     inkscape:window-x="-9"
     inkscape:window-y="-9"
     inkscape:window-maximized="1"
     inkscape:current-layer="svg24" />
  <metadata
     id="metadata2">
Created by potrace 1.16, written by Peter Selinger 2001-2019
<rdf:RDF>
  <cc:Work
     rdf:about="">
    <dc:format>image/svg+xml</dc:format>
    <dc:type
       rdf:resource="http://purl.org/dc/dcmitype/StillImage" />
  </cc:Work>
</rdf:RDF>
</metadata>
  <g
     transform="translate(0.000000,239.000000) scale(0.100000,-0.100000)"
     fill="#000000"
     stroke="none"
     id="g22"
     style="fill:#f9f9f9">
    <path
       d="M757 1512 l-297 -297 298 -298 297 -297 298 298 297 297 -298 298 -297 297 -298 -298z m444 59 c-16 -36 -51 -61 -87 -61 -20 0 -44 17 -91 65 -35 36 -69 65 -76 65 -6 0 15 27 48 60 l60 60 79 -79 c78 -78 79 -80 67 -110z m-203 -26 c72 -72 96 -83 152 -66 37 11 90 60 90 84 0 6 18 -7 40 -28 l40 -39 -92 -94 c-131 -131 -137 -130 -242 68 -19 36 -48 78 -65 94 -17 16 -28 33 -25 38 12 20 41 4 102 -57z m-100 -8 c20 -21 74 -111 124 -205 13 -26 32 -45 46 -49 25 -6 25 -21 -1 -37 -14 -9 -37 10 -142 114 -69 69 -125 129 -125 134 0 14 52 66 65 66 6 0 21 -10 33 -23z m17 -187 l130 -130 -32 -32 -32 -32 -68 72 c-63 67 -71 72 -110 72 -40 0 -43 2 -52 38 -24 92 -24 92 0 118 12 13 25 24 28 24 4 0 65 -58 136 -130z m553 -3 l132 -132 -133 -133 c-129 -129 -134 -132 -151 -114 -16 19 -16 22 6 63 32 63 36 162 8 207 -22 36 -88 71 -132 72 -16 0 -28 3 -28 7 0 9 152 163 160 163 3 0 65 -60 138 -133z m-753 -15 c8 -50 34 -72 85 -72 37 0 72 -28 129 -104 l22 -29 -27 -28 -27 -28 -33 29 c-70 61 -154 63 -184 5 -8 -17 -16 -32 -18 -34 -1 -3 -36 28 -77 69 l-75 75 92 92 c61 61 95 88 99 80 4 -6 10 -31 14 -55z m545 -80 c49 -24 67 -74 51 -146 -23 -105 -26 -105 -143 11 l-102 102 29 31 c28 29 33 31 80 25 27 -4 66 -14 85 -23z m-95 -152 l100 -101 -40 -35 c-146 -129 -160 -148 -192 -253 -2 -10 -46 27 -126 107 l-122 122 46 46 46 46 48 -31 c53 -33 74 -38 93 -19 19 19 14 79 -9 122 l-20 38 27 29 c15 16 33 29 39 29 6 0 55 -45 110 -100z m-347 -10 c49 -30 50 -46 6 -91 -21 -21 -43 -39 -48 -39 -20 0 -76 64 -76 88 0 62 53 81 118 42z m493 -136 c11 -13 -5 -33 -115 -142 -120 -119 -127 -125 -121 -92 11 55 53 113 135 184 41 35 78 65 81 65 4 1 12 -6 20 -15z"
       id="path4"
       style="fill:#f9f9f9" />
    <path
       d="M2584 1526 c-138 -43 -235 -193 -221 -341 27 -287 373 -407 569 -197 124 132 115 354 -19 471 -83 74 -219 101 -329 67z m194 -147 c120 -59 132 -239 21 -321 -85 -63 -221 -32 -269 62 -22 43 -26 122 -9 167 37 98 156 140 257 92z"
       id="path6"
       style="fill:#f9f9f9" />
    <path
       d="M3900 1531 c-87 -27 -165 -95 -204 -180 -17 -37 -21 -65 -21 -141 0 -76 4 -104 21 -141 66 -141 223 -217 365 -176 30 9 65 28 78 41 27 29 41 26 41 -10 0 -23 3 -24 65 -24 l65 0 0 170 0 171 -152 -3 -153 -3 0 -55 0 -55 75 -5 c80 -5 88 -13 52 -54 -60 -66 -205 -66 -263 0 -45 52 -63 124 -48 194 13 61 41 97 93 121 78 35 178 17 230 -42 23 -26 32 -29 86 -29 74 0 83 14 50 77 -51 97 -157 154 -283 152 -40 0 -83 -4 -97 -8z"
       id="path8"
       style="fill:#f9f9f9" />
    <path
       d="M5889 1517 c-76 -40 -108 -110 -94 -205 10 -67 66 -119 171 -157 100 -36 124 -52 124 -80 0 -63 -130 -71 -158 -10 -11 23 -17 25 -77 25 -78 0 -86 -10 -60 -75 34 -90 136 -144 250 -132 128 13 205 99 192 214 -8 78 -55 121 -180 169 -98 37 -117 51 -117 83 0 36 17 51 60 51 41 0 49 -5 73 -42 16 -26 23 -28 78 -28 69 0 78 10 60 70 -27 90 -102 139 -212 140 -50 0 -77 -6 -110 -23z"
       id="path10"
       style="fill:#f9f9f9" />
    <path
       d="M1967 1523 c-4 -3 -7 -145 -7 -315 l0 -308 180 0 180 0 0 65 0 65 -98 0 c-63 0 -102 4 -110 12 -9 9 -12 78 -12 250 l0 238 -63 0 c-35 0 -67 -3 -70 -7z"
       id="path12"
       style="fill:#f9f9f9" />
    <path
       d="M3110 1215 l0 -315 70 0 70 0 2 171 3 171 109 -171 108 -172 57 3 56 3 3 290 c1 160 0 300 -3 313 -5 21 -10 23 -73 20 l-67 -3 -5 -170 -5 -169 -110 172 -110 172 -52 0 -53 0 0 -315z"
       id="path14"
       style="fill:#f9f9f9" />
    <path
       d="M4410 1215 l0 -315 70 0 70 0 0 315 0 315 -70 0 -70 0 0 -315z"
       id="path16"
       style="fill:#f9f9f9" />
    <path
       d="M4667 1524 c-4 -4 -7 -146 -7 -316 l0 -309 73 3 72 3 3 169 2 169 109 -169 108 -169 56 -3 57 -3 0 316 0 316 -67 -3 -68 -3 -5 -170 -5 -170 -60 93 c-33 51 -83 128 -110 170 l-50 77 -51 3 c-27 2 -53 0 -57 -4z"
       id="path18"
       style="fill:#f9f9f9" />
    <path
       d="M5248 1521 c-1 -6 -1 -125 2 -264 l5 -254 27 -35 c81 -106 281 -115 377 -19 55 55 62 100 59 361 l-3 215 -70 0 -70 0 -5 -232 c-6 -269 -5 -267 -90 -267 -85 0 -84 -2 -90 267 l-5 232 -67 3 c-39 2 -67 -1 -70 -7z"
       id="path20"
       style="fill:#f9f9f9" />
  </g>
</svg>
